<svg xmlns="http://www.w3.org/2000/svg" viewBox="0 0 600 800" fill="none">
  <rect width="600" height="800" fill="#F5F0EB"/>
  <rect x="150" y="120" width="300" height="20" rx="10" fill="#D4C5B5" opacity="0.3"/>
  <!-- Blouse shape -->
  <path d="M200 250 Q210 200 260 190 Q290 185 300 180 Q310 185 340 190 Q390 200 400 250 L420 320 Q410 330 380 340 L380 580 Q380 600 360 600 L240 600 Q220 600 220 580 L220 340 Q190 330 180 320 Z" fill="#FAF7F4" stroke="#E8DDD3" stroke-width="2"/>
  <!-- Collar -->
  <path d="M260 190 Q280 210 300 215 Q320 210 340 190" fill="none" stroke="#D4C5B5" stroke-width="2"/>
  <!-- Buttons -->
  <circle cx="300" cy="280" r="4" fill="#D4C5B5"/>
  <circle cx="300" cy="330" r="4" fill="#D4C5B5"/>
  <circle cx="300" cy="380" r="4" fill="#D4C5B5"/>
  <circle cx="300" cy="430" r="4" fill="#D4C5B5"/>
  <!-- Sleeves -->
  <path d="M200 250 L160 310 Q155 320 165 325 L220 340" fill="#FAF7F4" stroke="#E8DDD3" stroke-width="2"/>
  <path d="M400 250 L440 310 Q445 320 435 325 L380 340" fill="#FAF7F4" stroke="#E8DDD3" stroke-width="2"/>
  <!-- Hanger -->
  <path d="M300 120 L300 160 M260 160 Q300 140 340 160" fill="none" stroke="#C4B5A5" stroke-width="2" stroke-linecap="round"/>
  <circle cx="300" cy="118" r="6" fill="none" stroke="#C4B5A5" stroke-width="2"/>
  <!-- Label -->
  <text x="300" y="720" text-anchor="middle" font-family="system-ui" font-size="16" font-weight="600" letter-spacing="4" fill="#A39585">SILK BLOUSE</text>
  <text x="300" y="745" text-anchor="middle" font-family="system-ui" font-size="11" letter-spacing="2" fill="#C4B5A5">RENÉRI COUTURE</text>
</svg>
