<svg xmlns="http://www.w3.org/2000/svg" viewBox="0 0 600 800" fill="none">
  <rect width="600" height="800" fill="#F0EBE4"/>
  <!-- Scarf draped -->
  <path d="M180 200 Q200 180 250 190 Q300 200 350 190 Q400 180 420 200 L430 220 Q420 230 400 225 L400 600 Q400 640 380 660 L370 680 Q360 690 350 680 L340 640 Q335 620 340 600 L340 300 Q330 290 300 295 Q270 290 260 300 L260 600 Q265 620 260 640 L250 680 Q240 690 230 680 L220 660 Q200 640 200 600 L200 225 Q180 230 170 220 Z" fill="#C8B090" stroke="#B8A080" stroke-width="2"/>
  <!-- Check pattern -->
  <line x1="230" y1="200" x2="230" y2="660" stroke="#A08060" stroke-width="1" opacity="0.3"/>
  <line x1="270" y1="200" x2="270" y2="660" stroke="#A08060" stroke-width="1" opacity="0.3"/>
  <line x1="330" y1="200" x2="330" y2="660" stroke="#A08060" stroke-width="1" opacity="0.3"/>
  <line x1="370" y1="200" x2="370" y2="660" stroke="#A08060" stroke-width="1" opacity="0.3"/>
  <line x1="180" y1="300" x2="430" y2="300" stroke="#A08060" stroke-width="1" opacity="0.2"/>
  <line x1="180" y1="400" x2="430" y2="400" stroke="#A08060" stroke-width="1" opacity="0.2"/>
  <line x1="180" y1="500" x2="430" y2="500" stroke="#A08060" stroke-width="1" opacity="0.2"/>
  <!-- Fringe left -->
  <line x1="225" y1="660" x2="220" y2="700" stroke="#B8A080" stroke-width="1.5"/>
  <line x1="235" y1="665" x2="232" y2="705" stroke="#B8A080" stroke-width="1.5"/>
  <line x1="245" y1="670" x2="244" y2="710" stroke="#B8A080" stroke-width="1.5"/>
  <!-- Fringe right -->
  <line x1="355" y1="670" x2="356" y2="710" stroke="#B8A080" stroke-width="1.5"/>
  <line x1="365" y1="665" x2="368" y2="705" stroke="#B8A080" stroke-width="1.5"/>
  <line x1="375" y1="660" x2="380" y2="700" stroke="#B8A080" stroke-width="1.5"/>
  <!-- Label -->
  <text x="300" y="750" text-anchor="middle" font-family="system-ui" font-size="15" font-weight="600" letter-spacing="3" fill="#8A7A6A">WOOL SCARF</text>
  <text x="300" y="775" text-anchor="middle" font-family="system-ui" font-size="11" letter-spacing="2" fill="#B0A090">RENÉRI COUTURE</text>
</svg>
