<svg xmlns="http://www.w3.org/2000/svg" viewBox="0 0 600 800" fill="none">
  <rect width="600" height="800" fill="#F8F0F0"/>
  <!-- Wrap dress body -->
  <path d="M205 210 Q215 185 265 178 L290 175 L300 255 L310 175 L335 178 Q385 185 395 210 L420 610 Q422 635 395 640 L205 640 Q178 635 180 610 Z" fill="#8B4560" stroke="#7B3550" stroke-width="2"/>
  <!-- Wrap overlap left panel -->
  <path d="M265 178 L240 240 L270 300 L265 610 L215 610 L185 610 Z" fill="#7B3550" stroke="#6B2540" stroke-width="1" opacity="0.8"/>
  <!-- V neckline -->
  <path d="M265 178 Q280 220 300 240 Q320 220 335 178" fill="none" stroke="#6B2540" stroke-width="1.5"/>
  <!-- Tie belt -->
  <path d="M230 280 Q265 270 300 275 Q335 270 370 280 L380 295 Q340 290 300 295 Q260 290 220 295 Z" fill="#6B2540" stroke="#5B1530" stroke-width="1"/>
  <!-- Tie tails -->
  <path d="M225 295 Q205 340 215 370 Q220 390 210 410" fill="none" stroke="#6B2540" stroke-width="8" stroke-linecap="round" opacity="0.7"/>
  <!-- Flowing skirt lines -->
  <path d="M200 400 Q300 380 400 400" fill="none" stroke="#7B3550" stroke-width="1" opacity="0.4"/>
  <path d="M195 500 Q300 475 405 500" fill="none" stroke="#7B3550" stroke-width="1" opacity="0.35"/>
  <path d="M188 580 Q300 555 412 580" fill="none" stroke="#7B3550" stroke-width="1" opacity="0.3"/>
  <!-- Sleeves -->
  <path d="M205 210 L150 300 Q140 325 158 330 L210 345" fill="#8B4560" stroke="#7B3550" stroke-width="2"/>
  <path d="M395 210 L450 300 Q460 325 442 330 L390 345" fill="#8B4560" stroke="#7B3550" stroke-width="2"/>
  <!-- Hanger -->
  <path d="M300 105 L300 145 M248 145 Q300 122 352 145" fill="none" stroke="#B5A595" stroke-width="2" stroke-linecap="round"/>
  <circle cx="300" cy="103" r="6" fill="none" stroke="#B5A595" stroke-width="2"/>
  <text x="300" y="710" text-anchor="middle" font-family="system-ui" font-size="14" font-weight="600" letter-spacing="4" fill="#6B2540">WRAP DRESS</text>
  <text x="300" y="735" text-anchor="middle" font-family="system-ui" font-size="11" letter-spacing="2" fill="#A07080">RENÉRI COUTURE</text>
</svg>
